<svg xmlns="http://www.w3.org/2000/svg" width="956" height="210" viewBox="0 0 956 210" role="img" aria-label="BlackSpirits tech stack and focus areas">
<defs><linearGradient id="accent" x1="0" y1="0" x2="1" y2="0"><stop offset="0" stop-color="#cba6f7"/><stop offset=".55" stop-color="#89b4fa"/><stop offset="1" stop-color="#fab387"/></linearGradient></defs>
<rect x=".75" y=".75" width="954.5" height="208.5" rx="12" fill="#1e1e2e" stroke="#45475a" stroke-width="1.5"/><rect x="22" y="20" width="88" height="3" rx="1.5" fill="url(#accent)"/>
<g font-family="Segoe UI, Ubuntu, Arial, sans-serif">
<text x="22" y="48" fill="#cdd6f4" font-size="20" font-weight="700">Stack &amp; Focus</text>
<text x="22" y="67" fill="#7f849c" font-size="11.5">Languages · tools · platforms · areas of work</text>
<text x="22" y="101" fill="#a6adc8" font-size="11" font-weight="700">Languages</text>
<g transform="translate(132 82)"><rect width="100" height="28" rx="8" fill="#181825" stroke="#45475a"/><circle cx="14" cy="14" r="4" fill="#f1e05a"/><text x="27" y="18" fill="#cdd6f4" font-family="Segoe UI, Ubuntu, Arial, sans-serif" font-size="10.8" font-weight="650">JavaScript</text></g><g transform="translate(242 82)"><rect width="104" height="28" rx="8" fill="#181825" stroke="#45475a"/><circle cx="14" cy="14" r="4" fill="#3178c6"/><text x="27" y="18" fill="#cdd6f4" font-family="Segoe UI, Ubuntu, Arial, sans-serif" font-size="10.8" font-weight="650">TypeScript</text></g><g transform="translate(356 82)"><rect width="82" height="28" rx="8" fill="#181825" stroke="#45475a"/><circle cx="14" cy="14" r="4" fill="#3572A5"/><text x="27" y="18" fill="#cdd6f4" font-family="Segoe UI, Ubuntu, Arial, sans-serif" font-size="10.8" font-weight="650">Python</text></g><g transform="translate(448 82)"><rect width="58" height="28" rx="8" fill="#181825" stroke="#45475a"/><circle cx="14" cy="14" r="4" fill="#a6e3a1"/><text x="27" y="18" fill="#cdd6f4" font-family="Segoe UI, Ubuntu, Arial, sans-serif" font-size="10.8" font-weight="650">C#</text></g><g transform="translate(516 82)"><rect width="76" height="28" rx="8" fill="#181825" stroke="#45475a"/><circle cx="14" cy="14" r="4" fill="#e34c26"/><text x="27" y="18" fill="#cdd6f4" font-family="Segoe UI, Ubuntu, Arial, sans-serif" font-size="10.8" font-weight="650">HTML5</text></g><g transform="translate(602 82)"><rect width="70" height="28" rx="8" fill="#181825" stroke="#45475a"/><circle cx="14" cy="14" r="4" fill="#663399"/><text x="27" y="18" fill="#cdd6f4" font-family="Segoe UI, Ubuntu, Arial, sans-serif" font-size="10.8" font-weight="650">CSS3</text></g>
<text x="22" y="143" fill="#a6adc8" font-size="11" font-weight="700">Tools</text>
<g transform="translate(132 124)"><rect width="76" height="28" rx="8" fill="#181825" stroke="#45475a"/><circle cx="14" cy="14" r="4" fill="#42b883"/><text x="27" y="18" fill="#cdd6f4" font-family="Segoe UI, Ubuntu, Arial, sans-serif" font-size="10.8" font-weight="650">Vue.js</text></g><g transform="translate(218 124)"><rect width="86" height="28" rx="8" fill="#181825" stroke="#45475a"/><circle cx="14" cy="14" r="4" fill="#68a063"/><text x="27" y="18" fill="#cdd6f4" font-family="Segoe UI, Ubuntu, Arial, sans-serif" font-size="10.8" font-weight="650">Node.js</text></g><g transform="translate(314 124)"><rect width="58" height="28" rx="8" fill="#181825" stroke="#45475a"/><circle cx="14" cy="14" r="4" fill="#f05032"/><text x="27" y="18" fill="#cdd6f4" font-family="Segoe UI, Ubuntu, Arial, sans-serif" font-size="10.8" font-weight="650">Git</text></g><g transform="translate(382 124)"><rect width="124" height="28" rx="8" fill="#181825" stroke="#45475a"/><circle cx="14" cy="14" r="4" fill="#89b4fa"/><text x="27" y="18" fill="#cdd6f4" font-family="Segoe UI, Ubuntu, Arial, sans-serif" font-size="10.8" font-weight="650">GitHub Actions</text></g><g transform="translate(516 124)"><rect width="118" height="28" rx="8" fill="#181825" stroke="#45475a"/><circle cx="14" cy="14" r="4" fill="#94e2d5"/><text x="27" y="18" fill="#cdd6f4" font-family="Segoe UI, Ubuntu, Arial, sans-serif" font-size="10.8" font-weight="650">Tampermonkey</text></g><g transform="translate(644 124)"><rect width="92" height="28" rx="8" fill="#181825" stroke="#45475a"/><circle cx="14" cy="14" r="4" fill="#23a9f2"/><text x="27" y="18" fill="#cdd6f4" font-family="Segoe UI, Ubuntu, Arial, sans-serif" font-size="10.8" font-weight="650">VS Code</text></g>
<text x="22" y="185" fill="#a6adc8" font-size="11" font-weight="700">Focus</text>
<g transform="translate(132 166)"><rect width="108" height="28" rx="8" fill="#181825" stroke="#45475a"/><circle cx="14" cy="14" r="4" fill="#fab387"/><text x="27" y="18" fill="#cdd6f4" font-family="Segoe UI, Ubuntu, Arial, sans-serif" font-size="10.8" font-weight="650">Automation</text></g><g transform="translate(250 166)"><rect width="108" height="28" rx="8" fill="#181825" stroke="#45475a"/><circle cx="14" cy="14" r="4" fill="#cba6f7"/><text x="27" y="18" fill="#cdd6f4" font-family="Segoe UI, Ubuntu, Arial, sans-serif" font-size="10.8" font-weight="650">Localization</text></g><g transform="translate(368 166)"><rect width="142" height="28" rx="8" fill="#181825" stroke="#45475a"/><circle cx="14" cy="14" r="4" fill="#89b4fa"/><text x="27" y="18" fill="#cdd6f4" font-family="Segoe UI, Ubuntu, Arial, sans-serif" font-size="10.8" font-weight="650">Media &amp; Metadata</text></g><g transform="translate(520 166)"><rect width="108" height="28" rx="8" fill="#181825" stroke="#45475a"/><circle cx="14" cy="14" r="4" fill="#94e2d5"/><text x="27" y="18" fill="#cdd6f4" font-family="Segoe UI, Ubuntu, Arial, sans-serif" font-size="10.8" font-weight="650">Open Source</text></g><g transform="translate(638 166)"><rect width="104" height="28" rx="8" fill="#181825" stroke="#45475a"/><circle cx="14" cy="14" r="4" fill="#a6e3a1"/><text x="27" y="18" fill="#cdd6f4" font-family="Segoe UI, Ubuntu, Arial, sans-serif" font-size="10.8" font-weight="650">Web Tooling</text></g>
</g></svg>