<svg xmlns="http://www.w3.org/2000/svg" width="108" height="28" viewBox="0 0 108 28" role="img" aria-label="Korean">
<defs><clipPath id="kc"><circle cx="14" cy="14" r="11"/></clipPath></defs><g clip-path="url(#kc)"><rect x="3" y="3" width="22" height="22" fill="#fff"/><path d="M8 14a6 6 0 0 1 12 0c0 3.3-2.7 6-6 6a3 3 0 0 1 0-6 3 3 0 0 0 0-6c-3.3 0-6 2.7-6 6Z" fill="#cd2e3a"/><path d="M20 14a6 6 0 0 1-12 0c0-3.3 2.7-6 6-6a3 3 0 0 1 0 6 3 3 0 0 0 0 6c3.3 0 6-2.7 6-6Z" fill="#0047a0"/></g><circle cx="14" cy="14" r="11.5" fill="none" stroke="#585b70"/><text x="34" y="18" fill="#cdd6f4" font-family="Segoe UI, Ubuntu, Arial, sans-serif" font-size="11.5" font-weight="700">Korean</text></svg>