<svg xmlns="http://www.w3.org/2000/svg" width="100" height="38" viewBox="0 0 100 38" role="img" aria-label="Ko-fi">
  <rect x=".75" y=".75" width="98.5" height="36.5" rx="9" fill="#232334" stroke="#45475a" stroke-width="1.5"/>
  <path d="M9 1.5a7.5 7.5 0 0 0-7.5 7.5v20A7.5 7.5 0 0 0 9 36.5" fill="none" stroke="#f38ba8" stroke-width="3" stroke-linecap="round"/>
  <g transform="translate(12 11)" fill="none" stroke="#f38ba8" stroke-width="1.7" stroke-linecap="round" stroke-linejoin="round"><path d="M2 5h12v5a4 4 0 0 1-4 4H6a4 4 0 0 1-4-4Z"/><path d="M14 7h2a2 2 0 0 1 0 4h-2"/><path d="M5.5 7.5c1-1.5 3.5-.9 3.5.8 0-1.7 2.5-2.3 3.5-.8.8 1.3-.1 2.8-3.5 4.6-3.4-1.8-4.3-3.3-3.5-4.6Z"/></g>
  <text x="36" y="23" fill="#cdd6f4" font-family="Segoe UI, Ubuntu, Arial, sans-serif" font-size="13" font-weight="650">Ko-fi</text>
  <path d="M74 15l4 4-4 4M77 19h7" fill="none" stroke="#f38ba8" stroke-width="1.8" stroke-linecap="round" stroke-linejoin="round"/>
</svg>