<svg width="600" height="52" viewBox="0 0 600 52" xmlns="http://www.w3.org/2000/svg" role="img" aria-label="Blackspirits profile views, followers and latest human update">
  <g font-family="Segoe UI, Ubuntu, Arial, sans-serif"><g transform="translate(18.0 5)">
      <rect width="180" height="42" rx="10" fill="#181825" stroke="#45475a" stroke-width="1.2"/>
      <path d="M8 1.5a6.5 6.5 0 0 0-6.5 6.5v26A6.5 6.5 0 0 0 8 40.5" fill="none" stroke="#cba6f7" stroke-width="2.5" stroke-linecap="round"/>
      <g transform="translate(14 9) scale(.75)" fill="none" stroke="#cba6f7" stroke-width="1.8" stroke-linecap="round" stroke-linejoin="round"><path d="M2 12s3.5-6 10-6 10 6 10 6-3.5 6-10 6S2 12 2 12Z"/><circle cx="12" cy="12" r="2.5"/></g>
      <text x="44" y="16" fill="#7f849c" font-size="10.5" font-weight="600">Views</text>
      <text x="44" y="31" fill="#cdd6f4" font-size="13" font-weight="700">3,133</text>
    </g><g transform="translate(210.0 5)">
      <rect width="180" height="42" rx="10" fill="#181825" stroke="#45475a" stroke-width="1.2"/>
      <path d="M8 1.5a6.5 6.5 0 0 0-6.5 6.5v26A6.5 6.5 0 0 0 8 40.5" fill="none" stroke="#f9e2af" stroke-width="2.5" stroke-linecap="round"/>
      <g transform="translate(14 9) scale(.75)" fill="none" stroke="#f9e2af" stroke-width="1.8" stroke-linecap="round" stroke-linejoin="round"><path d="M16 21v-2a4 4 0 0 0-4-4H6a4 4 0 0 0-4 4v2"/><circle cx="9" cy="7" r="4"/><path d="M22 21v-2a4 4 0 0 0-3-3.87M16 3.13a4 4 0 0 1 0 7.75"/></g>
      <text x="44" y="16" fill="#7f849c" font-size="10.5" font-weight="600">Followers</text>
      <text x="44" y="31" fill="#cdd6f4" font-size="13" font-weight="700">16</text>
    </g><g transform="translate(402.0 5)">
      <rect width="180" height="42" rx="10" fill="#181825" stroke="#45475a" stroke-width="1.2"/>
      <path d="M8 1.5a6.5 6.5 0 0 0-6.5 6.5v26A6.5 6.5 0 0 0 8 40.5" fill="none" stroke="#94e2d5" stroke-width="2.5" stroke-linecap="round"/>
      <g transform="translate(14 9) scale(.75)" fill="none" stroke="#94e2d5" stroke-width="1.8" stroke-linecap="round" stroke-linejoin="round"><circle cx="12" cy="12" r="9"/><path d="M12 7v5l3 2"/></g>
      <text x="44" y="16" fill="#7f849c" font-size="10.5" font-weight="600">Updated</text>
      <text x="44" y="31" fill="#cdd6f4" font-size="13" font-weight="700">28 Sep</text>
    </g></g>
</svg>