<svg width="956" height="240" viewBox="0 0 956 240" xmlns="http://www.w3.org/2000/svg" role="img" aria-label="Spotify syncing"><defs><linearGradient id="accent" x1="0" y1="0" x2="1" y2="0"><stop offset="0" stop-color="#cba6f7"/><stop offset=".55" stop-color="#89b4fa"/><stop offset="1" stop-color="#fab387"/></linearGradient></defs><rect x=".75" y=".75" width="954.5" height="238.5" rx="12" fill="#1e1e2e" stroke="#45475a" stroke-width="1.5"/><rect x="22" y="20" width="88" height="3" rx="1.5" fill="url(#accent)"/><g font-family="Segoe UI, Ubuntu, Arial, sans-serif"><text x="22" y="48" fill="#cdd6f4" font-size="20" font-weight="700">Spotify</text><text x="22" y="67" fill="#7f849c" font-size="11.5">Music powering the current coding session</text><rect x="22" y="82" width="132" height="132" rx="10" fill="#181825" stroke="#313244"/><circle cx="88" cy="148" r="34" fill="#a6e3a1" opacity=".12"/><path d="M76 160v-34l30-6v34M76 143c-12 0-16 14-4 17 10 2 14-6 14-13M106 137c-12 0-16 14-4 17 10 2 14-6 14-13" fill="none" stroke="#a6e3a1" stroke-width="5" stroke-linecap="round" stroke-linejoin="round"/><text x="184" y="110" fill="#a6e3a1" font-size="11" font-weight="700">SPOTIFY · SYNCING</text><text x="184" y="142" fill="#cdd6f4" font-size="27" font-weight="800">Connecting…</text><text x="184" y="167" fill="#a6adc8" font-size="16" font-weight="600">Spotify profile</text><text x="184" y="190" fill="#7f849c" font-size="10.5">The live card will refresh automatically</text></g></svg>