<svg width="956" height="330" viewBox="0 0 956 330" xmlns="http://www.w3.org/2000/svg" role="img" aria-labelledby="title desc">
  <title id="title">BlackSpirits Contribution Activity</title>
  <desc id="desc">GitHub contribution activity for the last 31 days. Peak 508 contributions.</desc>
  <defs>
    <linearGradient id="accent" x1="0" y1="0" x2="1" y2="0"><stop offset="0" stop-color="#cba6f7"/><stop offset=".55" stop-color="#89b4fa"/><stop offset="1" stop-color="#fab387"/></linearGradient>
    <linearGradient id="area" x1="0" y1="0" x2="0" y2="1"><stop offset="0" stop-color="#cba6f7" stop-opacity=".28"/><stop offset="1" stop-color="#cba6f7" stop-opacity="0"/></linearGradient>
  </defs>
  <rect x=".75" y=".75" width="954.5" height="328.5" rx="12" fill="#1e1e2e" stroke="#45475a" stroke-width="1.5"/>
  <rect x="22" y="20" width="88" height="3" rx="1.5" fill="url(#accent)"/>
  <g font-family="Segoe UI, Ubuntu, Arial, sans-serif">
    <text x="22" y="48" fill="#cdd6f4" font-size="20" font-weight="700">Contribution Activity</text>
    <text x="22" y="67" fill="#7f849c" font-size="11.5" font-weight="500">Last 31 days · 1,859 contributions in this window</text>
    <line x1="62" x2="931" y1="280" y2="280" stroke="#313244"/><line x1="62" x2="931" y1="246.36" y2="246.36" stroke="#313244"/><line x1="62" x2="931" y1="212.73" y2="212.73" stroke="#313244"/><line x1="62" x2="931" y1="179.09" y2="179.09" stroke="#313244"/><line x1="62" x2="931" y1="145.45" y2="145.45" stroke="#313244"/><line x1="62" x2="931" y1="111.82" y2="111.82" stroke="#313244"/>
    <text x="50" y="284" text-anchor="end" fill="#7f849c" font-size="10.5">0</text><text x="50" y="250.36" text-anchor="end" fill="#7f849c" font-size="10.5">100</text><text x="50" y="216.73" text-anchor="end" fill="#7f849c" font-size="10.5">200</text><text x="50" y="183.09" text-anchor="end" fill="#7f849c" font-size="10.5">300</text><text x="50" y="149.45" text-anchor="end" fill="#7f849c" font-size="10.5">400</text><text x="50" y="115.82" text-anchor="end" fill="#7f849c" font-size="10.5">500</text>
    <path d="M 62.00,279.33 L 90.97,274.95 L 119.93,275.96 L 148.90,272.60 L 177.87,277.65 L 206.83,275.62 L 235.80,279.66 L 264.77,275.62 L 293.73,257.47 L 322.70,277.98 L 351.67,277.31 L 380.63,280.00 L 409.60,276.30 L 438.57,266.20 L 467.53,265.18 L 496.50,253.76 L 525.47,109.12 L 554.43,207.64 L 583.40,140.36 L 612.37,204.27 L 641.33,268.56 L 670.30,278.99 L 699.27,270.58 L 728.23,273.61 L 757.20,279.66 L 786.17,276.97 L 815.13,277.65 L 844.10,274.28 L 873.07,276.30 L 902.03,275.29 L 931.00,275.62 L 931.00,280.00 L 62.00,280.00 Z" fill="url(#area)"/>
    <path d="M 62.00,279.33 L 90.97,274.95 L 119.93,275.96 L 148.90,272.60 L 177.87,277.65 L 206.83,275.62 L 235.80,279.66 L 264.77,275.62 L 293.73,257.47 L 322.70,277.98 L 351.67,277.31 L 380.63,280.00 L 409.60,276.30 L 438.57,266.20 L 467.53,265.18 L 496.50,253.76 L 525.47,109.12 L 554.43,207.64 L 583.40,140.36 L 612.37,204.27 L 641.33,268.56 L 670.30,278.99 L 699.27,270.58 L 728.23,273.61 L 757.20,279.66 L 786.17,276.97 L 815.13,277.65 L 844.10,274.28 L 873.07,276.30 L 902.03,275.29 L 931.00,275.62" fill="none" stroke="#cba6f7" stroke-width="3" stroke-linecap="round" stroke-linejoin="round"/>
    <g fill="#89b4fa" stroke="#1e1e2e" stroke-width="1.5">
      <circle cx="62" cy="279.33" r="2.4"/><circle cx="90.97" cy="274.95" r="2.4"/><circle cx="119.93" cy="275.96" r="2.4"/><circle cx="148.90" cy="272.60" r="2.4"/><circle cx="177.87" cy="277.65" r="2.4"/><circle cx="206.83" cy="275.62" r="2.4"/><circle cx="235.80" cy="279.66" r="2.4"/><circle cx="264.77" cy="275.62" r="2.4"/><circle cx="293.73" cy="257.47" r="2.4"/><circle cx="322.70" cy="277.98" r="2.4"/><circle cx="351.67" cy="277.31" r="2.4"/><circle cx="380.63" cy="280" r="2.4"/><circle cx="409.60" cy="276.30" r="2.4"/><circle cx="438.57" cy="266.20" r="2.4"/><circle cx="467.53" cy="265.18" r="2.4"/><circle cx="496.50" cy="253.76" r="2.4"/><circle cx="554.43" cy="207.64" r="2.4"/><circle cx="583.40" cy="140.36" r="2.4"/><circle cx="612.37" cy="204.27" r="2.4"/><circle cx="641.33" cy="268.56" r="2.4"/><circle cx="670.30" cy="278.99" r="2.4"/><circle cx="699.27" cy="270.58" r="2.4"/><circle cx="728.23" cy="273.61" r="2.4"/><circle cx="757.20" cy="279.66" r="2.4"/><circle cx="786.17" cy="276.97" r="2.4"/><circle cx="815.13" cy="277.65" r="2.4"/><circle cx="844.10" cy="274.28" r="2.4"/><circle cx="873.07" cy="276.30" r="2.4"/><circle cx="902.03" cy="275.29" r="2.4"/><circle cx="931" cy="275.62" r="2.4"/>
    </g>
    <circle cx="525.47" cy="109.12" r="3.6" fill="#fab387" stroke="#1e1e2e" stroke-width="1.5"/>
    <rect x="500.47" y="75.12" width="50" height="22" rx="7" fill="#181825" stroke="#fab387"/><text x="525.47" y="90.12" text-anchor="middle" fill="#fab387" font-size="11" font-weight="700">508</text>
    <text x="931" y="48" text-anchor="end" fill="#fab387" font-size="11.5" font-weight="700">Peak · 508</text>
    <text x="62" y="306" text-anchor="middle" fill="#7f849c" font-size="10.5">28</text><text x="177.87" y="306" text-anchor="middle" fill="#7f849c" font-size="10.5">1</text><text x="293.73" y="306" text-anchor="middle" fill="#7f849c" font-size="10.5">5</text><text x="409.60" y="306" text-anchor="middle" fill="#7f849c" font-size="10.5">9</text><text x="525.47" y="306" text-anchor="middle" fill="#7f849c" font-size="10.5">13</text><text x="641.33" y="306" text-anchor="middle" fill="#7f849c" font-size="10.5">17</text><text x="757.20" y="306" text-anchor="middle" fill="#7f849c" font-size="10.5">21</text><text x="873.07" y="306" text-anchor="middle" fill="#7f849c" font-size="10.5">25</text><text x="931" y="306" text-anchor="middle" fill="#7f849c" font-size="10.5">27</text>
  </g>
</svg>